<svg width="420" height="100" viewBox="0 0 420 100" xmlns="http://www.w3.org/2000/svg">
  <!-- Window outer border -->
  <rect x="1" y="1" width="418" height="98" fill="#d4d0c8"/>
  <rect x="1" y="1" width="418" height="1.5" fill="#ffffff"/>
  <rect x="1" y="1" width="1.5" height="98" fill="#ffffff"/>
  <rect x="416.5" y="1" width="2" height="98" fill="#404040"/>
  <rect x="1" y="97.5" width="418" height="1.5" fill="#404040"/>
  <rect x="2" y="2" width="416" height="1" fill="#dfdfdf"/>
  <rect x="2" y="2" width="1" height="96" fill="#dfdfdf"/>
  <rect x="416" y="2" width="1" height="96" fill="#808080"/>
  <rect x="2" y="97" width="416" height="1" fill="#808080"/>

  <!-- Title bar gradient -->
  <defs>
    <linearGradient id="tb" x1="0" x2="1" y1="0" y2="0">
      <stop offset="0%" stop-color="#000080"/>
      <stop offset="100%" stop-color="#1084d0"/>
    </linearGradient>
  </defs>
  <rect x="3" y="3" width="412" height="24" fill="url(#tb)"/>

  <!-- Title bar text -->
  <text x="10" y="19" font-family="Courier New, monospace" font-size="13" font-weight="bold" fill="#ffffff">🖥️  CouncilComputing.exe</text>

  <!-- Title bar buttons -->
  <rect x="370" y="5" width="16" height="14" fill="#d4d0c8"/>
  <rect x="370" y="5" width="16" height="1" fill="#fff"/>
  <rect x="370" y="5" width="1" height="14" fill="#fff"/>
  <rect x="385" y="5" width="1" height="14" fill="#404040"/>
  <rect x="370" y="18" width="16" height="1" fill="#404040"/>
  <text x="374" y="15" font-family="Courier New" font-size="9" fill="#000000">─</text>

  <rect x="388" y="5" width="16" height="14" fill="#d4d0c8"/>
  <rect x="388" y="5" width="16" height="1" fill="#fff"/>
  <rect x="388" y="5" width="1" height="14" fill="#fff"/>
  <rect x="403" y="5" width="1" height="14" fill="#404040"/>
  <rect x="388" y="18" width="16" height="1" fill="#404040"/>
  <text x="391" y="15" font-family="Courier New" font-size="9" fill="#000000">□</text>

  <rect x="405" y="5" width="16" height="14" fill="#d4d0c8"/>
  <rect x="405" y="5" width="16" height="1" fill="#fff"/>
  <rect x="405" y="5" width="1" height="14" fill="#fff"/>
  <rect x="420" y="5" width="1" height="14" fill="#404040"/>
  <rect x="405" y="18" width="16" height="1" fill="#404040"/>
  <text x="409" y="15" font-family="Courier New" font-size="9" fill="#000000">✕</text>

  <!-- Terminal body -->
  <rect x="3" y="27" width="412" height="70" fill="#001800"/>

  <!-- Terminal content -->
  <text x="16" y="50" font-family="Courier New, monospace" font-size="14" fill="#00ee66">C:\&gt; whoami</text>
  <text x="16" y="68" font-family="Courier New, monospace" font-size="16" font-weight="bold" fill="#00cc55">Council Computing</text>
  <text x="16" y="84" font-family="Courier New, monospace" font-size="13" fill="#008833">custom software, built your way</text>
  <text x="16" y="94" font-family="Courier New, monospace" font-size="11" fill="#00ee66">C:\&gt; <tspan fill="#00ee66">_</tspan></text>
</svg>
